PathFileType	4	(X/Y/Z)	C:/Users/beibeiliu/ov580/test_trc/capture2\sequence.35_training_dense_left.trc
DataRate	CameraRate	NumFrames	NumMarkers	Units	OrigDataRate	OrigDataStartFrame	OrigNumFrames
120	120	17	19	mm	120	35	272
Frame#	Time	ThumbCMC			ThumbMCP			ThumbIP			ThumbTip			IndexMCP			IndexPIP			IndexTip			MiddleMCP			MiddlePIP			MiddleTip			RingMCP			RingPIP			RingTip			PinkyMCP			PinkyPIP			PinkyTip			BackHand1			BackHand2			BackHand3	
		X0	Y0	Z0	X1	Y1	Z1	X2	Y2	Z2	X3	Y3	Z3	X4	Y4	Z4	X5	Y5	Z5	X6	Y6	Z6	X7	Y7	Z7	X8	Y8	Z8	X9	Y9	Z9	X10	Y10	Z10	X11	Y11	Z11	X12	Y12	Z12	X13	Y13	Z13	X14	Y14	Z14	X15	Y15	Z15	X16	Y16	Z16	X17	Y17	Z17	X18	Y18	Z18	
34	0.283333	-123.802	19.6656	-26.5597	-108.477	-1.31433	-42.167	-99.8312	-11.865	-63.6239	-93.7296	-21.0636	-84.3885	-145.866	31.0447	-95.739	-151.398	24.4121	-126.661	-157.372	17.8716	-146.103	-170.588	30.1678	-104.088	-178.538	19.7919	-129.081	-182.694	3.79304	-154.86	-191.645	25.0003	-94.0937	-195.545	16.6802	-119.734	-202.876	3.63649	-143.631	-208.763	16.1547	-75.649	-216.742	8.96139	-100.464	-226.264	4.97089	-121.475	-181.847	40.6712	-46.1027	-179.805	44.0731	-14.4092	-154.457	44.955	-36.7945	
35	0.291667	-122.344	19.2664	-31.1512	-110.685	-1.01034	-52.1252	-103.261	-11.8439	-70.9209	-96.8386	-22.9666	-91.3194	-145.696	31.9535	-103.729	-148.047	24.3429	-133.482	-156.573	16.6205	-152.137	-175.307	29.7232	-109.285	-177.728	18.9919	-134.803	-182.315	3.96024	-159.341	-193.112	24.977	-99.8039	-198.305	16.1426	-125.771	-202.47	3.90648	-146.673	-210.941	17.95	-86.1404	-218.324	9.5601	-106.327	-229.629	3.99864	-123.183	-185.127	42.0168	-53.389	-181.531	46.1746	-22.0674	-153.507	44.2243	-40.874	
36	0.3	-122.463	21.1145	-37.7394	-113.157	0.120534	-57.6927	-104.59	-11.4696	-76.4526	-92.885	-22.7621	-96.3513	-151.625	30.8	-108.969	-154.424	25.1827	-133.168	-162.356	14.7037	-156.853	-174.786	29.9009	-111.818	-178.569	19.7674	-136.828	-188.608	1.7585	-159.868	-193.821	24.6956	-102.163	-199.696	15.6907	-125.493	-204.034	-0.238355	-153.723	-209.778	16.9186	-90.6856	-217.372	8.59057	-109.257	-232.005	0.916722	-129.616	-187.631	41.2234	-54.1234	-181.41	47.1001	-28.0443	-154.649	45.5387	-46.7565	
37	0.308333	-125.006	21.0369	-44.2324	-114.112	0.0150674	-63.5829	-105.572	-11.9157	-80.2951	-94.9451	-22.7133	-99.7821	-153.733	30.1889	-116.646	-156.353	23.1171	-140.652	-161.415	11.4191	-162.825	-178.006	28.4256	-113.111	-184.021	16.5027	-139.927	-191.778	-3.31797	-160.956	-196.887	23.7785	-105.189	-200.971	12.3852	-132.681	-210.389	-5.24101	-155.121	-211.77	17.6773	-87.3599	-221.624	7.27103	-108.667	-228.859	1.42907	-129.676	-183.002	42.045	-56.5822	-184.12	47.5684	-29.5818	-151.411	47.0183	-53.374	
38	0.316667	-126.94	20.8237	-47.1926	-112.734	-2.31527	-64.0924	-104.621	-14.4913	-85.5276	-101.983	-25.2422	-102.182	-152.301	29.7414	-115.352	-154.477	20.9143	-144.407	-166.347	7.60594	-164.642	-174.069	28.0809	-117.94	-184.93	13.3108	-143.435	-192.851	-11.5181	-164.076	-194.215	23.3409	-110.669	-202.912	11.0991	-133.544	-208.433	-8.24054	-153.42	-210.951	16.4088	-93.6171	-222.732	6.19883	-111.193	-233.208	-5.87467	-135.449	-186.217	40.4748	-59.4819	-178.167	47.5196	-34.1982	-150.614	47.8246	-55.8618	
39	0.325	-128.089	19.2749	-50.0391	-119.216	-3.1354	-65.8004	-108.728	-17.6519	-91.1656	-103.685	-29.4516	-112.363	-155.176	27.3031	-122.711	-158.219	19.6981	-144.271	-167.488	0.987397	-167.288	-180.514	25.6068	-122.568	-186.854	8.42897	-146.625	-193.108	-14.8866	-160.861	-193.953	21.9042	-112.597	-204.112	5.93015	-135.953	-209.253	-18.3615	-154.157	-213.125	15.2316	-97.4818	-222.172	2.81	-115.899	-228.862	-14.2885	-136.6	-183.576	42.1783	-63.7668	-180.773	45.9547	-36.1136	-149.741	45.8674	-56.6814	
40	0.333333	-123.721	16.2951	-54.692	-119.297	-5.57642	-72.4241	-111.086	-18.8105	-94.8019	-107.249	-30.9089	-114.569	-158.074	26.387	-125.202	-160.819	14.4943	-148.606	-171.746	-4.635	-165.346	-180.559	23.5989	-124.654	-187.176	6.284	-147.627	-186.975	-23.9885	-161.119	-198.086	19.7727	-114.861	-204.114	3.02482	-137.902	-202.377	-27.3541	-151.642	-210.797	15.2666	-97.8862	-222.691	-0.215153	-117.27	-223.693	-19.0746	-137.95	-189.245	39.8463	-68.5211	-180.593	45.598	-38.619	-153.854	45.81	-60.0539	
41	0.341667	-125.265	16.3532	-56.937	-122.263	-6.99081	-71.5987	-113.963	-22.663	-99.5424	-116.944	-32.5869	-119.578	-156.728	24.3526	-125.352	-162.747	12.8118	-149.505	-172.877	-11.7768	-163.108	-182.372	21.6206	-128.276	-187.246	1.30127	-150.533	-189.704	-32.6769	-154.478	-200.356	17.9632	-116.639	-202.279	-2.18089	-139.435	-197.049	-33.1773	-145.564	-215.976	12.2632	-101.253	-220.805	-6.09345	-121.529	-218.076	-33.7571	-135.711	-188.218	38.4041	-70.0928	-179.43	43.7935	-42.187	-152.764	43.9608	-61.8435	
42	0.35	-130.039	13.3184	-60.6333	-119.784	-9.4137	-75.9924	-121.938	-23.917	-101.494	-125.168	-35.0959	-119.365	-156.473	22.4938	-127.721	-164.892	4.02798	-153.127	-170.149	-25.8004	-161.27	-182.813	17.1742	-131.567	-188.731	-6.3482	-150.346	-180.493	-42.1749	-146.478	-200.595	13.4577	-118.651	-205.608	-12.2127	-138.888	-193.185	-40.9804	-136.921	-216.281	8.23738	-103.23	-218.461	-12.5322	-123.276	-208.447	-39.7332	-129.958	-188.877	36.6146	-69.8833	-182.705	41.3744	-42.4923	-156.009	41.5881	-63.7104	
43	0.358333	-129.784	12.053	-60.0142	-125.187	-11.0634	-77.5472	-121.651	-25.8052	-98.5393	-131.142	-40.0028	-122.496	-163.404	17.8586	-129.108	-164.481	1.62806	-152.886	-169.662	-29.4262	-155.709	-184.023	14.0538	-128.508	-184.265	-14.0811	-150.214	-178.637	-43.9192	-135.652	-200.367	9.06144	-123.276	-203.324	-14.9415	-138.338	-191.11	-46.0474	-126.062	-213.541	4.88015	-107.56	-216.563	-18.4385	-122.718	-202.459	-43.9921	-121.955	-189.897	33.878	-74.4654	-187.782	39.5214	-43.1864	-156.042	39.6221	-64.6069	
44	0.366667	-134.5	9.45601	-57.8657	-122.806	-16.1595	-77.7161	-122.251	-31.7259	-104.536	-137.92	-41.2816	-120.47	-160.273	14.1128	-128.531	-166.138	-4.32444	-151.625	-166.918	-38.8811	-146.704	-180.405	10.1632	-128.964	-185.264	-17.0791	-146.571	-173.279	-46.6685	-125.765	-201.829	3.69753	-124.283	-201.904	-21.7247	-136.561	-186.906	-47.7867	-116.185	-213.54	0.970686	-104.224	-212.966	-27.9169	-120.588	-190.538	-47.717	-110.735	-191.279	29.8694	-72.6882	-184.023	35.9014	-45.7659	-156.881	37.0174	-68.8245	
45	0.375	-133.427	4.72698	-60.22	-125.347	-20.5027	-80.0673	-126.959	-34.7691	-99.5915	-138.256	-45.5813	-117.731	-160.275	9.78939	-130.076	-163.597	-13.6644	-150.715	-162.079	-43.7114	-139.652	-180.942	3.37652	-132.392	-184.175	-28.3195	-141.562	-171.735	-47.9577	-116.858	-197.261	0.508027	-123.556	-198.598	-27.635	-133.989	-181.745	-47.9466	-106.927	-214.659	-6.11987	-109.174	-211.818	-33.8611	-116.98	-190.026	-49.8003	-102.805	-195.456	26.4602	-72.0368	-185.042	34.3087	-44.2188	-158.629	32.7788	-66.2338	
46	0.383333	-132.109	2.37165	-62.7222	-122.687	-23.6929	-78.4086	-126.375	-38.1049	-100.185	-146.408	-48.5441	-117.533	-159.583	5.69199	-129.333	-164.888	-17.8214	-148.839	-162.631	-47.4952	-130.47	-178.773	-1.3346	-132.718	-178.86	-35.1235	-139.253	-169.65	-47.9458	-108.912	-202.201	-5.48438	-121.347	-195.287	-35.308	-131.044	-182.738	-49.5135	-101.737	-213.866	-11.6964	-109.891	-208.393	-36.5628	-116.439	-188.197	-48.9114	-94.9163	-192.149	23.6174	-75.5106	-187.207	29.44	-44.1673	-158.084	29.1166	-67.28	
47	0.391667	-131.272	-0.847427	-60.2141	-127.308	-25.3419	-77.5657	-124.259	-42.6372	-102.749	-141.781	-53.5713	-118.489	-159.808	0.534792	-131.899	-160.668	-22.8423	-146.741	-155.182	-50.7043	-125.702	-179.457	-4.78855	-129.015	-180.388	-38.3734	-136.137	-165.912	-47.5933	-103.066	-199.782	-12.8288	-124.03	-192.786	-40.3209	-127.058	-178.964	-49.2407	-95.3423	-210.609	-14.5827	-106.732	-204.483	-43.5824	-111.21	-183.626	-48.0735	-87.029	-193.079	19.0862	-71.8518	-186.219	27.7063	-47.9424	-158.608	27.7997	-67.2905	
48	0.4	-132.817	-1.47494	-56.1507	-126.388	-26.8738	-75.0004	-122.829	-44.0215	-100.64	-145.435	-53.1552	-115.52	-158.397	-1.36256	-129.366	-160.886	-28.9513	-143.693	-154.198	-51.1154	-118.928	-179.789	-9.30091	-127.819	-173.553	-42.1141	-133.055	-161.735	-45.3006	-98.0492	-194.726	-14.5089	-119.944	-192.488	-47.1322	-121.114	-173.407	-45.123	-91.4394	-211.837	-21.0583	-108.61	-199.246	-48.0843	-108.235	-182.949	-49.7526	-84.8751	-195.296	17.6693	-71.5766	-189.087	23.1359	-47.4871	-163.31	25.1308	-64.2141	
49	0.408333	-130.371	-3.30631	-59.1396	-125.783	-26.1006	-74.8436	-124.622	-42.1066	-98.6694	-143.081	-53.5548	-117.175	-158.44	-4.24897	-130.31	-156.147	-32.7475	-140.248	-149.04	-48.8585	-114.434	-177.342	-11.6261	-129.174	-173.991	-43.1973	-130.367	-165.083	-43.6938	-92.3248	-196.178	-17.7563	-121.345	-186.855	-48.2274	-119.267	-175.572	-46.7561	-87.6866	-207.192	-18.6148	-104.02	-197.492	-47.1097	-108.914	-181.069	-49.9001	-78.5289	-194.776	16.8478	-74.7755	-186.832	21.2118	-45.4145	-161.78	23.6434	-65.1262	
50	0.416667	-131.314	-2.65496	-52.3874	-122.827	-25.7478	-75.014	-123.097	-40.5771	-96.9619	-138.439	-52.8524	-117.519	-153.85	-2.95268	-124.787	-156.762	-33.5892	-137.629	-146.078	-47.6817	-111.522	-175.922	-12.8647	-126.703	-171.233	-44.4951	-128.283	-163.688	-44.7467	-93.1721	-192.75	-17.7102	-119.105	-185.469	-50.3253	-115.831	-172.723	-42.6226	-84.2853	-206.531	-24.5887	-106.923	-197.746	-51.4308	-105.735	-178.636	-49.3503	-79.7899	-194.234	15.1776	-71.3025	-191.142	20.6567	-44.5836	-162.746	23.2161	-63.6134	
